<svg width="214" height="61" viewBox="0 0 214 61" fill="none" xmlns="http://www.w3.org/2000/svg">
<path d="M4.707 16.61C5.535 16.61 6.27 16.781 6.912 17.123C7.56 17.459 8.064 17.924 8.424 18.518C8.784 19.112 8.964 19.784 8.964 20.534C8.964 21.062 8.886 21.518 8.73 21.902C8.58 22.28 8.367 22.568 8.091 22.766C7.815 22.964 7.491 23.063 7.119 23.063C6.813 23.063 6.555 22.997 6.345 22.865C6.135 22.733 5.982 22.538 5.886 22.28C5.562 22.802 5.049 23.063 4.347 23.063C3.963 23.063 3.612 22.967 3.294 22.775C2.976 22.583 2.724 22.316 2.538 21.974C2.358 21.626 2.268 21.23 2.268 20.786C2.268 20.348 2.358 19.958 2.538 19.616C2.724 19.268 2.973 18.998 3.285 18.806C3.603 18.614 3.957 18.518 4.347 18.518C4.941 18.518 5.403 18.716 5.733 19.112V18.581H6.957V21.497C6.957 21.881 7.101 22.073 7.389 22.073C7.599 22.073 7.761 21.947 7.875 21.695C7.995 21.443 8.055 21.062 8.055 20.552C8.055 19.946 7.914 19.412 7.632 18.95C7.356 18.482 6.963 18.119 6.453 17.861C5.949 17.597 5.367 17.465 4.707 17.465C4.047 17.465 3.462 17.606 2.952 17.888C2.448 18.164 2.055 18.548 1.773 19.04C1.497 19.532 1.359 20.09 1.359 20.714C1.359 21.35 1.497 21.917 1.773 22.415C2.049 22.907 2.436 23.291 2.934 23.567C3.438 23.849 4.017 23.99 4.671 23.99C5.319 23.99 5.91 23.858 6.444 23.594L6.732 24.422C6.462 24.56 6.141 24.665 5.769 24.737C5.403 24.815 5.037 24.854 4.671 24.854C3.819 24.854 3.066 24.674 2.412 24.314C1.758 23.96 1.251 23.468 0.891 22.838C0.531 22.208 0.351 21.5 0.351 20.714C0.351 19.934 0.531 19.232 0.891 18.608C1.257 17.984 1.77 17.495 2.43 17.141C3.09 16.787 3.849 16.61 4.707 16.61ZM4.626 22.028C4.956 22.028 5.226 21.92 5.436 21.704C5.646 21.482 5.751 21.176 5.751 20.786C5.751 20.402 5.646 20.102 5.436 19.886C5.226 19.67 4.956 19.562 4.626 19.562C4.29 19.562 4.02 19.673 3.816 19.895C3.612 20.111 3.51 20.408 3.51 20.786C3.51 21.17 3.612 21.473 3.816 21.695C4.02 21.917 4.29 22.028 4.626 22.028ZM26.9564 23L26.9324 12.92L21.9884 21.224H20.2364L15.3164 13.136V23H11.6684V6.2H14.8844L21.1724 16.64L27.3644 6.2H30.5564L30.6044 23H26.9564ZM46.8303 18.512H37.4703L35.4543 23H33.6063L41.2863 6.2H43.0383L50.7183 23H48.8463L46.8303 18.512ZM46.1823 17.072L42.1503 8.048L38.1183 17.072H46.1823ZM65.9294 23L62.0894 17.6C61.6574 17.648 61.2094 17.672 60.7454 17.672H56.2334V23H54.4574V6.2H60.7454C62.8894 6.2 64.5694 6.712 65.7854 7.736C67.0014 8.76 67.6094 10.168 67.6094 11.96C67.6094 13.272 67.2734 14.384 66.6014 15.296C65.9454 16.192 65.0014 16.84 63.7694 17.24L67.8734 23H65.9294ZM60.6974 16.16C62.3614 16.16 63.6334 15.792 64.5134 15.056C65.3934 14.32 65.8334 13.288 65.8334 11.96C65.8334 10.6 65.3934 9.56 64.5134 8.84C63.6334 8.104 62.3614 7.736 60.6974 7.736H56.2334V16.16H60.6974ZM77.9692 15.104L74.5372 18.584V23H72.7612V6.2H74.5372V16.352L84.4012 6.2H86.4412L79.1692 13.808L86.9452 23H84.8332L77.9692 15.104ZM113.085 23L113.061 12.92L108.117 21.224H106.365L101.445 13.136V23H97.7965V6.2H101.013L107.301 16.64L113.493 6.2H116.685L116.733 23H113.085ZM132.958 18.512H123.598L121.582 23H119.734L127.414 6.2H129.166L136.846 23H134.974L132.958 18.512ZM132.31 17.072L128.278 8.048L124.246 17.072H132.31ZM152.058 23L148.218 17.6C147.786 17.648 147.338 17.672 146.874 17.672H142.362V23H140.586V6.2H146.874C149.018 6.2 150.698 6.712 151.914 7.736C153.13 8.76 153.738 10.168 153.738 11.96C153.738 13.272 153.402 14.384 152.73 15.296C152.074 16.192 151.13 16.84 149.898 17.24L154.002 23H152.058ZM146.826 16.16C148.49 16.16 149.762 15.792 150.642 15.056C151.522 14.32 151.962 13.288 151.962 11.96C151.962 10.6 151.522 9.56 150.642 8.84C149.762 8.104 148.49 7.736 146.826 7.736H142.362V16.16H146.826ZM158.889 6.2H160.665V23H158.889V6.2ZM167.091 6.2H168.867V21.464H178.275V23H167.091V6.2ZM192.767 18.512H183.407L181.391 23H179.543L187.223 6.2H188.975L196.655 23H194.783L192.767 18.512ZM192.119 17.072L188.087 8.048L184.055 17.072H192.119ZM211.992 14.6H213.696V21.008C212.912 21.696 211.984 22.224 210.912 22.592C209.84 22.96 208.712 23.144 207.528 23.144C205.848 23.144 204.336 22.776 202.992 22.04C201.648 21.304 200.592 20.288 199.824 18.992C199.056 17.68 198.672 16.216 198.672 14.6C198.672 12.984 199.056 11.528 199.824 10.232C200.592 8.92 201.648 7.896 202.992 7.16C204.336 6.424 205.856 6.056 207.552 6.056C208.832 6.056 210.008 6.264 211.08 6.68C212.152 7.08 213.056 7.68 213.792 8.48L212.688 9.608C211.36 8.296 209.672 7.64 207.624 7.64C206.264 7.64 205.032 7.944 203.928 8.552C202.84 9.144 201.984 9.976 201.36 11.048C200.736 12.104 200.424 13.288 200.424 14.6C200.424 15.912 200.736 17.096 201.36 18.152C201.984 19.208 202.84 20.04 203.928 20.648C205.016 21.256 206.24 21.56 207.6 21.56C209.328 21.56 210.792 21.128 211.992 20.264V14.6Z" fill="white"/>
<path d="M20.538 43.4L16.416 56H13.284L10.512 47.468L7.65 56H4.536L0.396 43.4H3.42L6.264 52.256L9.234 43.4H11.934L14.814 52.328L17.748 43.4H20.538ZM35.1619 53.66V56H25.4059V43.4H34.9279V45.74H28.3039V48.476H34.1539V50.744H28.3039V53.66H35.1619ZM49.974 49.448C50.694 49.676 51.258 50.06 51.666 50.6C52.074 51.128 52.278 51.782 52.278 52.562C52.278 53.666 51.846 54.518 50.982 55.118C50.13 55.706 48.882 56 47.238 56H40.722V43.4H46.878C48.414 43.4 49.59 43.694 50.406 44.282C51.234 44.87 51.648 45.668 51.648 46.676C51.648 47.288 51.498 47.834 51.198 48.314C50.91 48.794 50.502 49.172 49.974 49.448ZM43.62 45.596V48.566H46.518C47.238 48.566 47.784 48.44 48.156 48.188C48.528 47.936 48.714 47.564 48.714 47.072C48.714 46.58 48.528 46.214 48.156 45.974C47.784 45.722 47.238 45.596 46.518 45.596H43.62ZM47.022 53.804C47.79 53.804 48.366 53.678 48.75 53.426C49.146 53.174 49.344 52.784 49.344 52.256C49.344 51.212 48.57 50.69 47.022 50.69H43.62V53.804H47.022ZM66.0634 43.4H71.7874C73.1554 43.4 74.3614 43.664 75.4054 44.192C76.4614 44.708 77.2774 45.44 77.8534 46.388C78.4414 47.336 78.7354 48.44 78.7354 49.7C78.7354 50.96 78.4414 52.064 77.8534 53.012C77.2774 53.96 76.4614 54.698 75.4054 55.226C74.3614 55.742 73.1554 56 71.7874 56H66.0634V43.4ZM71.6434 53.606C72.9034 53.606 73.9054 53.258 74.6494 52.562C75.4054 51.854 75.7834 50.9 75.7834 49.7C75.7834 48.5 75.4054 47.552 74.6494 46.856C73.9054 46.148 72.9034 45.794 71.6434 45.794H68.9794V53.606H71.6434ZM93.9305 53.66V56H84.1745V43.4H93.6965V45.74H87.0725V48.476H92.9225V50.744H87.0725V53.66H93.9305ZM111.429 43.4L105.975 56H103.095L97.6589 43.4H100.809L104.643 52.4L108.531 43.4H111.429ZM125.477 53.66V56H115.721V43.4H125.243V45.74H118.619V48.476H124.469V50.744H118.619V53.66H125.477ZM131.037 43.4H133.953V53.624H140.271V56H131.037V43.4ZM151.031 56.216C149.723 56.216 148.541 55.934 147.485 55.37C146.441 54.806 145.619 54.032 145.019 53.048C144.431 52.052 144.137 50.936 144.137 49.7C144.137 48.464 144.431 47.354 145.019 46.37C145.619 45.374 146.441 44.594 147.485 44.03C148.541 43.466 149.723 43.184 151.031 43.184C152.339 43.184 153.515 43.466 154.559 44.03C155.603 44.594 156.425 45.374 157.025 46.37C157.625 47.354 157.925 48.464 157.925 49.7C157.925 50.936 157.625 52.052 157.025 53.048C156.425 54.032 155.603 54.806 154.559 55.37C153.515 55.934 152.339 56.216 151.031 56.216ZM151.031 53.732C151.775 53.732 152.447 53.564 153.047 53.228C153.647 52.88 154.115 52.4 154.451 51.788C154.799 51.176 154.973 50.48 154.973 49.7C154.973 48.92 154.799 48.224 154.451 47.612C154.115 47 153.647 46.526 153.047 46.19C152.447 45.842 151.775 45.668 151.031 45.668C150.287 45.668 149.615 45.842 149.015 46.19C148.415 46.526 147.941 47 147.593 47.612C147.257 48.224 147.089 48.92 147.089 49.7C147.089 50.48 147.257 51.176 147.593 51.788C147.941 52.4 148.415 52.88 149.015 53.228C149.615 53.564 150.287 53.732 151.031 53.732ZM168.811 43.4C169.927 43.4 170.893 43.586 171.709 43.958C172.537 44.33 173.173 44.858 173.617 45.542C174.061 46.226 174.283 47.036 174.283 47.972C174.283 48.896 174.061 49.706 173.617 50.402C173.173 51.086 172.537 51.614 171.709 51.986C170.893 52.346 169.927 52.526 168.811 52.526H166.273V56H163.357V43.4H168.811ZM168.649 50.15C169.525 50.15 170.191 49.964 170.647 49.592C171.103 49.208 171.331 48.668 171.331 47.972C171.331 47.264 171.103 46.724 170.647 46.352C170.191 45.968 169.525 45.776 168.649 45.776H166.273V50.15H168.649ZM189.361 53.66V56H179.605V43.4H189.127V45.74H182.503V48.476H188.353V50.744H182.503V53.66H189.361ZM202.949 56L200.519 52.49H200.375H197.837V56H194.921V43.4H200.375C201.491 43.4 202.457 43.586 203.273 43.958C204.101 44.33 204.737 44.858 205.181 45.542C205.625 46.226 205.847 47.036 205.847 47.972C205.847 48.908 205.619 49.718 205.163 50.402C204.719 51.074 204.083 51.59 203.255 51.95L206.081 56H202.949ZM202.895 47.972C202.895 47.264 202.667 46.724 202.211 46.352C201.755 45.968 201.089 45.776 200.213 45.776H197.837V50.168H200.213C201.089 50.168 201.755 49.976 202.211 49.592C202.667 49.208 202.895 48.668 202.895 47.972Z" fill="white"/>
<rect y="32" width="207" height="4" fill="white"/>
</svg>
