<svg width="1920" height="1080" viewBox="0 0 1920 1080" fill="none" xmlns="http://www.w3.org/2000/svg">
<rect width="1920" height="1080" fill="#4B5963"/>
<path d="M204.904 442.4H251.56V605.984H352.648V644H204.904V442.4ZM459.672 646.304C443.352 646.304 428.664 642.944 415.608 636.224C402.744 629.312 392.664 619.808 385.368 607.712C378.072 595.616 374.424 581.888 374.424 566.528C374.424 551.168 378.072 537.44 385.368 525.344C392.664 513.248 402.744 503.84 415.608 497.12C428.664 490.208 443.352 486.752 459.672 486.752C475.992 486.752 490.584 490.208 503.448 497.12C516.312 503.84 526.392 513.248 533.688 525.344C540.984 537.44 544.632 551.168 544.632 566.528C544.632 581.888 540.984 595.616 533.688 607.712C526.392 619.808 516.312 629.312 503.448 636.224C490.584 642.944 475.992 646.304 459.672 646.304ZM459.672 609.44C471.192 609.44 480.6 605.6 487.896 597.92C495.384 590.048 499.128 579.584 499.128 566.528C499.128 553.472 495.384 543.104 487.896 535.424C480.6 527.552 471.192 523.616 459.672 523.616C448.152 523.616 438.648 527.552 431.16 535.424C423.672 543.104 419.928 553.472 419.928 566.528C419.928 579.584 423.672 590.048 431.16 597.92C438.648 605.6 448.152 609.44 459.672 609.44ZM646.147 486.752C670.147 486.752 688.579 492.512 701.443 504.032C714.307 515.36 720.739 532.544 720.739 555.584V644H678.691V624.704C670.243 639.104 654.499 646.304 631.459 646.304C619.555 646.304 609.187 644.288 600.355 640.256C591.715 636.224 585.091 630.656 580.483 623.552C575.875 616.448 573.571 608.384 573.571 599.36C573.571 584.96 578.947 573.632 589.699 565.376C600.643 557.12 617.443 552.992 640.099 552.992H675.811C675.811 543.2 672.835 535.712 666.883 530.528C660.931 525.152 652.003 522.464 640.099 522.464C631.843 522.464 623.683 523.808 615.619 526.496C607.747 528.992 601.027 532.448 595.459 536.864L579.331 505.472C587.779 499.52 597.859 494.912 609.571 491.648C621.475 488.384 633.667 486.752 646.147 486.752ZM642.691 616.064C650.371 616.064 657.187 614.336 663.139 610.88C669.091 607.232 673.315 601.952 675.811 595.04V579.2H644.995C626.563 579.2 617.347 585.248 617.347 597.344C617.347 603.104 619.555 607.712 623.971 611.168C628.579 614.432 634.819 616.064 642.691 616.064ZM932.432 430.304V644H889.521V626.144C878.385 639.584 862.257 646.304 841.136 646.304C826.545 646.304 813.297 643.04 801.392 636.512C789.68 629.984 780.464 620.672 773.744 608.576C767.024 596.48 763.664 582.464 763.664 566.528C763.664 550.592 767.024 536.576 773.744 524.48C780.464 512.384 789.68 503.072 801.392 496.544C813.297 490.016 826.545 486.752 841.136 486.752C860.913 486.752 876.369 492.992 887.505 505.472V430.304H932.432ZM848.913 609.44C860.241 609.44 869.649 605.6 877.137 597.92C884.625 590.048 888.368 579.584 888.368 566.528C888.368 553.472 884.625 543.104 877.137 535.424C869.649 527.552 860.241 523.616 848.913 523.616C837.393 523.616 827.889 527.552 820.4 535.424C812.912 543.104 809.168 553.472 809.168 566.528C809.168 579.584 812.912 590.048 820.4 597.92C827.889 605.6 837.393 609.44 848.913 609.44ZM985.535 489.056H1030.46V644H985.535V489.056ZM1008 467.456C999.743 467.456 993.023 465.056 987.839 460.256C982.655 455.456 980.063 449.504 980.063 442.4C980.063 435.296 982.655 429.344 987.839 424.544C993.023 419.744 999.743 417.344 1008 417.344C1016.25 417.344 1022.97 419.648 1028.16 424.256C1033.34 428.864 1035.93 434.624 1035.93 441.536C1035.93 449.024 1033.34 455.264 1028.16 460.256C1022.97 465.056 1016.25 467.456 1008 467.456ZM1177.86 486.752C1197.06 486.752 1212.51 492.512 1224.22 504.032C1236.13 515.552 1242.08 532.64 1242.08 555.296V644H1197.15V562.208C1197.15 549.92 1194.46 540.8 1189.09 534.848C1183.71 528.704 1175.94 525.632 1165.76 525.632C1154.43 525.632 1145.41 529.184 1138.69 536.288C1131.97 543.2 1128.61 553.568 1128.61 567.392V644H1083.68V489.056H1126.59V507.2C1132.54 500.672 1139.94 495.68 1148.77 492.224C1157.6 488.576 1167.3 486.752 1177.86 486.752ZM1455.85 489.056V618.08C1455.85 646.496 1448.46 667.616 1433.68 681.44C1418.89 695.264 1397.29 702.176 1368.88 702.176C1353.9 702.176 1339.69 700.352 1326.25 696.704C1312.81 693.056 1301.68 687.776 1292.84 680.864L1310.7 648.608C1317.23 653.984 1325.48 658.208 1335.47 661.28C1345.45 664.544 1355.44 666.176 1365.42 666.176C1380.97 666.176 1392.4 662.624 1399.69 655.52C1407.18 648.608 1410.92 638.048 1410.92 623.84V617.216C1399.21 630.08 1382.89 636.512 1361.96 636.512C1347.76 636.512 1334.7 633.44 1322.8 627.296C1311.08 620.96 1301.77 612.128 1294.86 600.8C1287.95 589.472 1284.49 576.416 1284.49 561.632C1284.49 546.848 1287.95 533.792 1294.86 522.464C1301.77 511.136 1311.08 502.4 1322.8 496.256C1334.7 489.92 1347.76 486.752 1361.96 486.752C1384.43 486.752 1401.52 494.144 1413.23 508.928V489.056H1455.85ZM1370.89 599.648C1382.8 599.648 1392.49 596.192 1399.98 589.28C1407.66 582.176 1411.5 572.96 1411.5 561.632C1411.5 550.304 1407.66 541.184 1399.98 534.272C1392.49 527.168 1382.8 523.616 1370.89 523.616C1358.99 523.616 1349.2 527.168 1341.52 534.272C1333.84 541.184 1330 550.304 1330 561.632C1330 572.96 1333.84 582.176 1341.52 589.28C1349.2 596.192 1358.99 599.648 1370.89 599.648ZM1526.18 646.304C1518.31 646.304 1511.68 643.616 1506.31 638.24C1500.93 632.864 1498.24 626.144 1498.24 618.08C1498.24 609.824 1500.93 603.2 1506.31 598.208C1511.68 593.024 1518.31 590.432 1526.18 590.432C1534.05 590.432 1540.68 593.024 1546.05 598.208C1551.43 603.2 1554.12 609.824 1554.12 618.08C1554.12 626.144 1551.43 632.864 1546.05 638.24C1540.68 643.616 1534.05 646.304 1526.18 646.304ZM1613.08 646.304C1605.2 646.304 1598.58 643.616 1593.2 638.24C1587.83 632.864 1585.14 626.144 1585.14 618.08C1585.14 609.824 1587.83 603.2 1593.2 598.208C1598.58 593.024 1605.2 590.432 1613.08 590.432C1620.95 590.432 1627.57 593.024 1632.95 598.208C1638.32 603.2 1641.01 609.824 1641.01 618.08C1641.01 626.144 1638.32 632.864 1632.95 638.24C1627.57 643.616 1620.95 646.304 1613.08 646.304ZM1699.97 646.304C1692.1 646.304 1685.47 643.616 1680.1 638.24C1674.72 632.864 1672.03 626.144 1672.03 618.08C1672.03 609.824 1674.72 603.2 1680.1 598.208C1685.47 593.024 1692.1 590.432 1699.97 590.432C1707.84 590.432 1714.47 593.024 1719.84 598.208C1725.22 603.2 1727.91 609.824 1727.91 618.08C1727.91 626.144 1725.22 632.864 1719.84 638.24C1714.47 643.616 1707.84 646.304 1699.97 646.304Z" fill="white"/>
</svg>
